<svg width="117" height="16" viewBox="0 0 117 16" fill="none" xmlns="http://www.w3.org/2000/svg">
<path d="M7.07617 2.00195C5.50716 2.00195 4.26693 2.52604 3.35547 3.57422C2.45052 4.61589 1.99805 6.04492 1.99805 7.86133C1.99805 9.72982 2.43424 11.1751 3.30664 12.1973C4.18555 13.2129 5.43555 13.7207 7.05664 13.7207C8.05273 13.7207 9.1888 13.5417 10.4648 13.1836V14.6387C9.47526 15.0098 8.25456 15.1953 6.80273 15.1953C4.69987 15.1953 3.07552 14.5573 1.92969 13.2812C0.790365 12.0052 0.220703 10.1921 0.220703 7.8418C0.220703 6.37044 0.494141 5.08138 1.04102 3.97461C1.5944 2.86784 2.38867 2.01497 3.42383 1.41602C4.46549 0.817057 5.68945 0.517578 7.0957 0.517578C8.5931 0.517578 9.90169 0.791016 11.0215 1.33789L10.3184 2.76367C9.23763 2.25586 8.1569 2.00195 7.07617 2.00195Z" fill="#898989"/>
<path d="M25.9727 7.8418C25.9727 10.127 25.3932 11.9238 24.2344 13.2324C23.082 14.541 21.4772 15.1953 19.4199 15.1953C17.3171 15.1953 15.6927 14.554 14.5469 13.2715C13.4076 11.9824 12.8379 10.166 12.8379 7.82227C12.8379 5.49805 13.4108 3.69792 14.5566 2.42188C15.7025 1.13932 17.3301 0.498047 19.4395 0.498047C21.4902 0.498047 23.0918 1.14909 24.2441 2.45117C25.3965 3.75326 25.9727 5.55013 25.9727 7.8418ZM14.5957 7.8418C14.5957 9.77539 15.0059 11.2435 15.8262 12.2461C16.653 13.2422 17.8509 13.7402 19.4199 13.7402C21.002 13.7402 22.1966 13.2422 23.0039 12.2461C23.8112 11.25 24.2148 9.7819 24.2148 7.8418C24.2148 5.92122 23.8112 4.46615 23.0039 3.47656C22.2031 2.48047 21.015 1.98242 19.4395 1.98242C17.8574 1.98242 16.653 2.48372 15.8262 3.48633C15.0059 4.48242 14.5957 5.93424 14.5957 7.8418Z" fill="#898989"/>
<path d="M37.3203 0.722656H39.1074L33.9609 15H32.3203L27.2031 0.722656H28.9609L32.2422 9.96094C32.6198 11.0221 32.9193 12.054 33.1406 13.0566C33.375 12.002 33.681 10.9505 34.0586 9.90234L37.3203 0.722656Z" fill="#898989"/>
<path d="M41.0801 15V0.722656H42.7402V15H41.0801Z" fill="#898989"/>
<path d="M58.0625 7.72461C58.0625 10.0814 57.4212 11.8848 56.1387 13.1348C54.8626 14.3783 53.0234 15 50.6211 15H46.666V0.722656H51.041C53.2611 0.722656 54.9863 1.33789 56.2168 2.56836C57.4473 3.79883 58.0625 5.51758 58.0625 7.72461ZM56.3047 7.7832C56.3047 5.92122 55.8359 4.51823 54.8984 3.57422C53.9674 2.63021 52.5807 2.1582 50.7383 2.1582H48.3262V13.5645H50.3477C52.3268 13.5645 53.8145 13.0794 54.8105 12.1094C55.8066 11.1328 56.3047 9.69076 56.3047 7.7832Z" fill="#898989"/>
<path d="M60.1133 10.3809V8.89648H64.9082V10.3809H60.1133Z" fill="#898989"/>
<path d="M72.7207 15H71.1387V4.82422C71.1387 3.97786 71.1647 3.17708 71.2168 2.42188C71.0801 2.55859 70.9271 2.70182 70.7578 2.85156C70.5885 3.0013 69.8138 3.63607 68.4336 4.75586L67.5742 3.64258L71.3535 0.722656H72.7207V15Z" fill="#898989"/>
<path d="M87.5449 6.81641C87.5449 12.4023 85.3835 15.1953 81.0605 15.1953C80.3053 15.1953 79.7064 15.1302 79.2637 15V13.6035C79.7845 13.7728 80.377 13.8574 81.041 13.8574C82.6035 13.8574 83.7819 13.3757 84.5762 12.4121C85.377 11.4421 85.8132 9.95768 85.8848 7.95898H85.7676C85.4095 8.49935 84.9342 8.91276 84.3418 9.19922C83.7493 9.47917 83.082 9.61914 82.3398 9.61914C81.0768 9.61914 80.0742 9.24154 79.332 8.48633C78.5898 7.73112 78.2188 6.67643 78.2188 5.32227C78.2188 3.83789 78.6322 2.66602 79.459 1.80664C80.2923 0.947266 81.3861 0.517578 82.7402 0.517578C83.7103 0.517578 84.5566 0.768229 85.2793 1.26953C86.0085 1.76432 86.5684 2.49023 86.959 3.44727C87.3496 4.39779 87.5449 5.52083 87.5449 6.81641ZM82.7402 1.9043C81.8092 1.9043 81.0898 2.20378 80.582 2.80273C80.0742 3.40169 79.8203 4.23503 79.8203 5.30273C79.8203 6.24023 80.0547 6.97917 80.5234 7.51953C80.9922 8.05339 81.7051 8.32031 82.6621 8.32031C83.2546 8.32031 83.7982 8.19987 84.293 7.95898C84.7943 7.7181 85.1882 7.38932 85.4746 6.97266C85.7611 6.55599 85.9043 6.11979 85.9043 5.66406C85.9043 4.98047 85.7708 4.34896 85.5039 3.76953C85.237 3.1901 84.8626 2.73438 84.3809 2.40234C83.9056 2.07031 83.3587 1.9043 82.7402 1.9043Z" fill="#898989"/>
<path d="M103.618 8.36084C103.618 10.8354 102.931 12.729 101.557 14.0415C100.183 15.3472 98.2036 16 95.6196 16H91.4258V1.00879H96.0605C98.4463 1.00879 100.302 1.65137 101.628 2.93652C102.955 4.22168 103.618 6.02979 103.618 8.36084ZM101.034 8.44287C101.034 4.854 99.3555 3.05957 95.999 3.05957H93.8765V13.939H95.6196C99.229 13.939 101.034 12.1069 101.034 8.44287Z" fill="#48BB78"/>
<path d="M116.271 16H105.545V14.2979L113.103 3.11084H105.75V1.00879H116.066V2.73145L108.478 13.8979H116.271V16Z" fill="#48BB78"/>
</svg>
